<svg xmlns="http://www.w3.org/2000/svg" viewBox="0 0 512.001 512.001" width="682.668" height="682.668"><path d="M255.998 200.928l65.6 104.593 64.08-36.625-30.93 120.695h-197.52l-30.93-120.695 64.08 36.625 65.6-104.593z" fill="#fee187"/><g fill="#ffc61b"><path d="M354.758 401.62h-197.52c-5.372 0-10.066-3.694-11.423-9l-30.93-120.695c-1.196-4.667.46-9.612 4.207-12.56a11.63 11.63 0 0 1 12.991-.97l54.358 31.07 59.608-95.024c2.17-3.458 5.92-5.55 9.947-5.55s7.78 2.093 9.947 5.55l59.61 95.024 54.357-31.07c4.13-2.36 9.243-1.98 12.99.97s5.403 7.893 4.207 12.56L366.18 392.63c-1.356 5.295-6.05 9-11.422 9zm-188.4-24.057h179.28l21.613-84.337-39.867 22.787c-5.454 3.12-12.354 1.36-15.723-4.013l-55.663-88.734L200.336 312c-3.37 5.372-10.266 7.133-15.724 4.013l-39.867-22.787 21.612 84.336z"/><ellipse vector-effect="non-scaling-stroke" cx="456.693" cy="190.175" rx="36.598" ry="37.288"/></g><path d="M456.7 140.854c-26.7 0-48.403 22.124-48.403 49.316 0 1.112.05 2.2.12 3.304l-65.288 34.663-51.915-82.76c8.172-8.834 13.197-20.723 13.197-33.8 0-27.193-21.715-49.317-48.404-49.317s-48.404 22.124-48.404 49.317a49.66 49.66 0 0 0 13.197 33.8l-57.734 92.04c-3.513 5.598-1.905 13.035 3.6 16.613s12.795 1.94 16.305-3.658l57.715-92.006c.162.055.33.102.493.157l.946.3 1.017.294 1.217.33.32.075c3.64.893 7.434 1.38 11.34 1.38a47.47 47.47 0 0 0 11.34-1.38c.107-.027.216-.05.323-.075.407-.104.812-.216 1.216-.33l1.017-.294.946-.3c.164-.055.33-.102.493-.157l57.715 92.006c2.238 3.57 6.043 5.553 9.956 5.553 1.844 0 3.7-.44 5.447-1.363l71.43-37.926c8.605 13.726 23.677 22.854 40.813 22.854 26.7 0 48.404-22.124 48.404-49.317s-21.718-49.32-48.4-49.32zm-200.693-54.53c13.67 0 24.792 11.33 24.792 25.26 0 9.575-5.257 17.923-12.984 22.206a25.28 25.28 0 0 1-1.935.949c-.194.087-.392.166-.587.247-.505.2-1.02.4-1.54.576l-.563.2a24.28 24.28 0 0 1-2.07.543c-.16.033-.32.056-.48.088a23.93 23.93 0 0 1-1.752.273l-.636.07c-.74.068-1.488.115-2.246.115a25.66 25.66 0 0 1-2.246-.115 27.46 27.46 0 0 1-.636-.07 23.91 23.91 0 0 1-1.753-.273c-.16-.032-.32-.054-.48-.088a24.68 24.68 0 0 1-2.071-.543c-.188-.058-.373-.126-.56-.2-.523-.175-1.04-.368-1.547-.577l-.58-.244c-8.77-3.896-14.92-12.804-14.92-23.158.003-13.93 11.125-25.26 24.795-25.26zM456.7 215.43c-13.67 0-24.792-11.33-24.792-25.26S443.02 164.9 456.7 164.9s24.792 11.33 24.792 25.26-11.123 25.26-24.792 25.26zm-34.208 100.34c-6.3-1.676-12.758 2.17-14.405 8.6l-25.962 101.306H129.883l-49.54-193.312c13.996-8.655 23.366-24.33 23.366-42.193 0-27.192-21.714-49.316-48.403-49.316S6.9 162.978 6.9 190.17s21.715 49.317 48.404 49.317c.82 0 1.634-.022 2.444-.063l51.6 201.318c1.357 5.295 6.052 9 11.424 9h270.472c5.372 0 10.066-3.694 11.424-9l28.264-110.296c1.647-6.427-2.133-12.997-8.44-14.677zm-391.97-125.6c0-13.928 11.123-25.26 24.792-25.26s24.792 11.33 24.792 25.26-11.123 25.26-24.792 25.26-24.792-11.33-24.792-25.26z" fill="#242323"/></svg>