<svg xmlns="http://www.w3.org/2000/svg" viewBox="0 0 52 52" width="69.333" height="69.333" fill="#b3b3b3"><path d="M26 0C11.663 0 0 11.663 0 26s11.663 26 26 26 26-11.663 26-26S40.337 0 26 0zm0 50C12.767 50 2 39.233 2 26S12.767 2 26 2s24 10.767 24 24-10.767 24-24 24zm0-13a1 1 0 0 0-1 1v2a1 1 0 1 0 2 0v-2a1 1 0 0 0-1-1zm.113-28h-.115c-2.116 0-4.106.815-5.615 2.304C18.847 12.82 18 14.842 18 17a1 1 0 1 0 2 0c0-1.618.635-3.136 1.787-4.272s2.688-1.765 4.3-1.727c3.16.044 5.87 2.752 5.913 5.913a5.97 5.97 0 0 1-2.751 5.132c-2.66 1.716-4.25 4.748-4.25 8.112V33a1 1 0 1 0 2 0v-2.842c0-2.642 1.276-5.105 3.332-6.432a7.96 7.96 0 0 0 3.667-6.84C33.94 12.6 30.4 9.06 26.113 9z"/></svg>