<svg xmlns="http://www.w3.org/2000/svg" xmlns:xlink="http://www.w3.org/1999/xlink" viewBox="0 0 248 248"><g fill="#234d82"><use xlink:href="#B"/><use xlink:href="#C"/><use xlink:href="#D"/><use xlink:href="#E"/></g><g fill="#b3b3b3"><use xlink:href="#B"/><use xlink:href="#C"/><use xlink:href="#D"/><use xlink:href="#E"/></g><g fill="#666"><use xlink:href="#B"/><use xlink:href="#C"/><use xlink:href="#D"/><use xlink:href="#E"/></g><defs ><path id="B" d="M108.5 82.67H87.83a5.16 5.16 0 0 0-5.16 5.16v62a5.16 5.16 0 0 0 5.16 5.17h20.67a5.17 5.17 0 0 0 5.17-5.17v-62a5.17 5.17 0 0 0-5.17-5.16z"/><path id="C" d="M67.17 113.67H46.5a5.17 5.17 0 0 0-5.17 5.16v31A5.17 5.17 0 0 0 46.5 155h20.67a5.16 5.16 0 0 0 5.16-5.17v-31a5.16 5.16 0 0 0-5.16-5.16z"/><path id="D" d="M149.83 51.67h-20.67a5.16 5.16 0 0 0-5.16 5.17v93a5.16 5.16 0 0 0 5.16 5.17h20.67a5.17 5.17 0 0 0 5.17-5.17v-93a5.17 5.17 0 0 0-5.17-5.17z"/><path id="E" d="M245 230.36l-61.68-61.68c34.918-42.703 30.218-105.286-10.688-142.295S68.987-9.055 29.98 29.95s-40.574 101.745-3.566 142.65 99.59 45.606 142.295 10.688l61.65 61.7a10.35 10.35 0 0 0 17.319-4.641A10.35 10.35 0 0 0 245 230.36zM103.33 186c-45.657 0-82.67-37.013-82.67-82.67s37.013-82.67 82.67-82.67S186 57.673 186 103.33c-.05 45.637-37.033 82.62-82.67 82.67z"/></defs></svg>