<svg xmlns="http://www.w3.org/2000/svg" xmlns:xlink="http://www.w3.org/1999/xlink" viewBox="0 0 200.4 246"><g fill="#234d82"><use xlink:href="#B"/><use xlink:href="#C"/><use xlink:href="#D"/><use xlink:href="#E"/><use xlink:href="#F"/><use xlink:href="#G"/></g><g fill="#666"><use xlink:href="#B"/><use xlink:href="#C"/><use xlink:href="#D"/><use xlink:href="#E"/><use xlink:href="#F"/><use xlink:href="#G"/></g><g fill="#234d82"><use xlink:href="#B"/><use xlink:href="#C"/><use xlink:href="#D"/><use xlink:href="#E"/><use xlink:href="#F"/><use xlink:href="#G"/></g><g fill="#666"><use xlink:href="#B"/><use xlink:href="#C"/><use xlink:href="#D"/><use xlink:href="#E"/><use xlink:href="#F"/><use xlink:href="#G"/></g><defs ><path id="B" d="M172.16 175.84v1.1c-2.25-1.26-9.78-4.75-17.22.4s-26.6 14.45-43.3 14.06a5.29 5.29 0 0 0-5.38-5.26h-.67a5.38 5.38 0 0 0-5.38 5.38 5.38 5.38 0 0 0-5.38-5.38h-.67a5.2 5.2 0 0 0-5.38 5.16v2.38a74.36 74.36 0 0 1-27.39-3.22 24.36 24.36 0 0 1-5.6-2.53v-1.34a5.2 5.2 0 0 0-5.38-5.16h-.62a5.38 5.38 0 0 0-5.37 5.23 22 22 0 0 0-17.92 17h-8.33v-8.07H8.07v8.07H0v10.1h8.07v8.07h10.1v-8.07h8.47a22.21 22.21 0 0 0 17.75 16.03v.52a5.57 5.57 0 0 0 5.38 5.6h.68a5.57 5.57 0 0 0 5.38-5.6v-2a24 24 0 0 1 5.56-2.52 74.34 74.34 0 0 1 27.4-3.25v3.06a5.58 5.58 0 0 0 5.38 5.61h.62a5.38 5.38 0 0 0 5.38-5.38 5.38 5.38 0 0 0 5.38 5.38h.67a5.58 5.58 0 0 0 5.38-5.61v-.7c16.72-.4 36 8.87 43.3 14s15 1.67 17.22.4v1.15a5.57 5.57 0 0 0 5.38 5.6h6.05a5.75 5.75 0 0 0 5.2-4h11.6v-67.33h-11.58a5 5 0 0 0-5.2-4h-6.05a5.19 5.19 0 0 0-5.37 5.12z"/><path id="C" d="M153.33 101l-23.12 23.1a.79.79 0 0 0 0 1.12l6.9 6.9a.78.78 0 0 0 1.11 0l3.54-3.54a.79.79 0 0 1 1.11 0l18.84 18.83c9.45 9.46 10 8.88 16.92 2s7.46-7.47-2-16.92l-18.85-18.8a.79.79 0 0 1 0-1.11l3.54-3.54a.8.8 0 0 0 0-1.11l-6.9-6.9a.79.79 0 0 0-1.09-.03z"/><path id="D" d="M127.78 88.17c-4.74 4.12-8.9 7.55-13.3 11.1-.22.17-.56.6-.13.94 7.58 6 13.08 10 15.8 12 1 .74 9.64 8.9 10.32 8.23 2.27-2.28 5.46-7.8 7.9-10.23.68-.68-6.37-7.9-7-8.6l-12.58-13.47c-.13-.14-.44-.5-1 .03z"/><path id="E" d="M90.54 79.38l14.66-15.8c.25-.33 0-.86-.17-1.07L95.3 52.04c-11.77-12.6-42.1-50.9-42.1-50.9s-2.12-2.8-2.9.34c-1.3 5.22-3.65 17.24 2 33.66 4.27 12.5 20.4 29.32 37 44.15a1 1 0 0 0 1.25.08z"/><path id="F" d="M69.26 111.15c2.44 2.44 8 5.63 10.23 7.9.68.68-2.33 2.33 10.7-8.83 11.16-9.3 67.5-49.4 76.27-75.07 5.6-16.42 3.25-28.44 2-33.66-.78-3.14-2.9-.34-2.9-.34S135.18 39.44 123.4 52"/><path id="G" d="M64.26 101l-6.9 6.9a.79.79 0 0 0 0 1.12l3.53 3.53a.79.79 0 0 1 0 1.12l-18.84 18.87c-9.45 9.46-8.87 10-2 16.92s7.47 7.47 16.92-2l18.84-18.84a.78.78 0 0 1 1.11 0l3.53 3.53a.79.79 0 0 0 1.12 0l6.9-6.9a.79.79 0 0 0 0-1.12L65.38 101a.79.79 0 0 0-1.12 0z"/></defs></svg>