<svg xmlns="http://www.w3.org/2000/svg" xmlns:xlink="http://www.w3.org/1999/xlink" viewBox="0 0 226.73 247"><g fill="#666"><use xlink:href="#B"/><use xlink:href="#C"/></g><g fill="#b3b3b3"><use xlink:href="#B"/><use xlink:href="#C"/></g><defs ><path id="B" d="M134 215.56h-.7v-2.4a5.61 5.61 0 0 0-5.6-5.62h-2.62a30.8 30.8 0 0 1 .21-9.65c3-13.63 6.74-27.14 11-40.43a169.7 169.7 0 0 0 6.84-28.73c-35.948-12.436-56.306-50.407-46.77-87.23-1.62-.6-3.27-1.15-5-1.66A9.31 9.31 0 0 1 86.69 36c-3.7-6-7.84-11.43-14.52-16.4-.3 2.95-.65 4.83-.67 6.72 0 2.8.1 5.6.34 8.4.33 3.87-.86 6.2-5.15 6.56-2.4.18-4.75 1.1-7 1.63 0 8.72 0 8.72-7.9 11.93A59.3 59.3 0 0 0 44.05 58a21.5 21.5 0 0 0-5.1 4.53c-3.46 4-6.35 8.5-10.17 12.06C21.13 81.72 13.14 88.45 5.04 95c-3.5 2.84-6.14 5.4-4.4 10.4.5 1.45-.2 3.37-.5 5-1 5.15 3.45 14 8.2 16.32 11.26 5.45 20.12 4 29-5.08 4.2-4.25 8.8-5.93 14.76-3.88 8.18 2.83 16.54 4.93 26.3 2.64l-4.23 4.45c-11.17 11.35-22 23-30.14 36.8-6.5 11-11.8 22.47-11.6 35.5a87.59 87.59 0 0 0 .91 10.27H32.3a5.61 5.61 0 0 0-5.61 5.61v2.42H26a6.36 6.36 0 0 0-6.35 6.35V247h120.7v-25.1a6.35 6.35 0 0 0-6.37-6.33z"/><path id="C" d="M166.9 0c-24.2-.004-46.02 14.57-55.283 36.927s-4.147 48.092 12.963 65.206 42.845 22.234 65.203 12.974S226.72 84.03 226.72 59.83C226.72 26.79 199.94.006 166.9 0zm-1.33 98.53c-5.65 0-9.5-4.15-9.5-9.7s3.94-9.7 9.5-9.7c5.75 0 9.48 4.05 9.6 9.7s-3.87 9.7-9.6 9.7zm12.9-39.65c-3.94 4.37-5.54 8.53-5.43 13.32v1.92h-14.18l-.1-2.77c-.32-5.43 1.5-11 6.3-16.73 3.4-4 6.2-7.46 6.2-11.1s-2.46-6.18-7.8-6.4a20.21 20.21 0 0 0-10.55 3.19l-3.6-11.62a36.66 36.66 0 0 1 17.8-4.37c14.07 0 20.46 7.8 20.46 16.63-.03 8.1-5.04 13.43-9.1 17.9z"/></defs></svg>