<svg xmlns="http://www.w3.org/2000/svg" xmlns:xlink="http://www.w3.org/1999/xlink" viewBox="0 0 249 249"><use xlink:href="#B"/><use xlink:href="#C" fill="#234d82"/><g fill="#666"><use xlink:href="#B"/><use xlink:href="#C"/></g><defs ><path id="B" d="M70.9 171.4c-4-7.7-4.7-14-3.5-18.7.6-2.3 2.9-10 11.7-15.2 9-5.4 20.2-2.2 24.1-.3-6.5-19.9-8.9-43-8.4-68.3h9.6c5.8 0 9.6-4.8 9.6-9.6s-3.9-9.6-9.6-9.6h-7.7c4.8-4.8 7.7-11.6 7.7-19.3 0-16.4-12.5-28.9-28.9-28.9S46.6 14 46.6 30.4c0 7.7 2.9 14.4 7.7 19.3h-7.7c-4.8 0-9.6 4.8-9.6 9.6s4.8 9.6 9.6 9.6h9.6c1 43.3-6.7 79.9-28.9 105.9-5.8 0-9.6 4.8-9.6 9.6s3.9 9.6 9.6 9.6h55.4c-2.1-3.8-5.5-10.5-11.8-22.6z"/><path id="C" d="M230 164.1v-1.9c0-7.6-6.2-13.8-13.8-13.8s-13.8 6.2-13.8 13.8v-15.1c0-7.6-6.2-13.8-13.8-13.8s-13.8 6.2-13.8 13.8v-13.8c0-7.6-6.6-13.8-14.2-13.8s-14.2 6.6-14.2 14.2V89.2c0-7.6-6.2-13.8-13.8-13.8s-13.8 6.2-13.8 13.8v89.2s-14.1-42.3-33.9-32.2c-6.9 3.5-9.8 11.9-6.4 18.8l25.6 51.8s15.8 31.1 43.4 31.1h36.7c25.3 0 45.6-20.5 45.6-45.9l.2-37.9z"/></defs></svg>