<svg xmlns="http://www.w3.org/2000/svg" xmlns:xlink="http://www.w3.org/1999/xlink" viewBox="0 0 240 248.28"><use xlink:href="#B" fill="#234d82"/><use xlink:href="#B" fill="#666"/><defs ><path id="B" d="M57.93 82.76h-8.28V12.42c0-6.854-5.556-12.4-12.4-12.4s-12.4 5.556-12.4 12.4v70.34h-8.28C7.42 82.76.017 90.15 0 99.28v16.56a16.55 16.55 0 0 0 16.55 16.55h8.28v103.48c0 6.854 5.556 12.4 12.4 12.4s12.4-5.556 12.4-12.4V132.42h8.28c9.14 0 16.55-7.4 16.55-16.55v-16.6c-.017-9.13-7.42-16.52-16.55-16.52zm82.76 74.52h-8.28V12.42a12.41 12.41 0 0 0-18.615-10.747 12.41 12.41 0 0 0-6.205 10.747v144.86H99.3a16.55 16.55 0 0 0-16.55 16.55v16.55a16.55 16.55 0 0 0 16.55 16.55h8.28v29a12.41 12.41 0 0 0 18.615 10.747 12.41 12.41 0 0 0 6.205-10.747v-29h8.28a16.55 16.55 0 0 0 16.55-16.55V173.8c-.017-9.13-7.42-16.52-16.55-16.52zm82.76-132.45h-8.28v-12.4a12.42 12.42 0 0 0-18.726-11.049 12.42 12.42 0 0 0-6.104 11.049v12.4h-8.27c-9.14 0-16.55 7.4-16.55 16.55v16.55a16.55 16.55 0 0 0 16.55 16.56h8.27v161.38c.19 6.72 5.693 12.068 12.415 12.068s12.224-5.348 12.415-12.068V74.5h8.28c9.142-.006 16.55-7.418 16.55-16.56V41.38a16.55 16.55 0 0 0-16.55-16.55z"/></defs></svg>