<svg xmlns="http://www.w3.org/2000/svg" viewBox="0 0 1024 1024" width="1365.333" height="1365.333"><g fill="#d41c3b"><path d="M699.237 788.105H324.723c-10.187 0-19.086-7.005-21.657-17.066L244.42 542.192c-2.268-8.85.873-18.225 7.977-23.815 7.065-5.585 16.815-6.31 24.63-1.84l103.066 58.91 113.022-180.17c4.115-6.558 11.225-10.526 18.86-10.526s14.75 3.968 18.86 10.526L643.86 575.45l103.066-58.91c7.83-4.475 17.524-3.754 24.63 1.84s10.243 14.966 7.976 23.815L720.89 771.06c-2.572 10.04-11.472 17.065-21.657 17.065v-.02h.003zM342.01 742.492h339.93l40.98-159.9-75.59 43.205c-10.342 5.916-23.423 2.595-29.814-7.608L511.98 449.93 406.44 618.178c-6.388 10.185-19.465 13.525-29.814 7.607l-75.6-43.204 40.975 159.91z"/><ellipse vector-effect="non-scaling-stroke" cx="892.512" cy="387.187" rx="69.393" ry="70.701"/></g><path d="M892.524 293.67c-50.6 0-91.776 41.95-91.776 93.51 0 2.108.097 4.17.228 6.264l-123.79 65.723-98.435-156.92c15.495-16.75 25.023-39.292 25.023-64.088 0-51.56-41.173-93.506-91.776-93.506s-91.776 41.948-91.776 93.506c0 24.782 9.528 47.323 25.02 64.088L335.775 476.763c-6.662 10.616-3.612 24.716 6.826 31.5s24.26 3.68 30.914-6.935l109.43-174.45c.307.104.627.193.937.297l1.794.568 1.928.56 2.307.624.605.144c6.9 1.693 14.095 2.617 21.5 2.617a90.08 90.08 0 0 0 21.503-2.617c.2-.052.41-.095.612-.144l2.307-.624 1.928-.56 2.728-.865 109.432 174.45c4.245 6.77 11.458 10.53 18.878 10.53a21.98 21.98 0 0 0 10.327-2.584l135.44-71.9c16.315 26.026 44.893 43.333 77.385 43.333 50.6 0 91.776-41.95 91.776-93.506s-41.18-93.516-91.77-93.516l-.037.002v-.005zM511.997 190.278c25.92 0 47.008 21.484 47.008 47.895 0 18.154-9.97 33.982-24.62 42.103-1.196.653-2.42 1.253-3.668 1.8-.368.165-.744.317-1.113.47-.957.38-1.935.757-2.92 1.09l-1.067.38c-1.293.4-2.603.744-3.926 1.03-.288.062-.606.107-.91.167-1.098.214-2.208.387-3.322.52l-1.205.133c-1.403.13-2.822.22-4.258.22-1.422-.01-2.843-.084-4.26-.22l-1.207-.133a45.09 45.09 0 0 1-3.324-.519c-.288-.06-.605-.1-.908-.167-1.322-.286-2.633-.63-3.928-1.03-.358-.112-.712-.238-1.06-.38-1-.33-1.97-.698-2.933-1.093l-1.1-.464c-16.628-7.387-28.3-24.276-28.3-43.9.006-26.41 21.095-47.893 47.016-47.893l-.003.001h-.003zm380.527 244.796c-25.918 0-47.006-21.484-47.006-47.894s21.07-47.917 47.006-47.917 47.01 21.484 47.01 47.897-21.1 47.895-47.01 47.895v.02zm-64.86 190.25c-11.946-3.176-24.2 4.115-27.313 16.308l-49.226 192.084H272.854l-93.93-366.537c26.538-16.412 44.303-46.132 44.303-80 0-51.56-41.17-93.506-91.776-93.506S39.67 335.62 39.67 387.18s41.173 93.506 91.776 93.506a89.07 89.07 0 0 0 4.635-.12l97.836 381.715c2.575 10.04 11.477 17.065 21.66 17.065h512.837c10.185 0 19.086-7.004 21.66-17.065l53.592-209.13c3.12-12.187-4.046-24.645-16.005-27.83l.003.003zM84.457 387.18c0-26.41 21.1-47.896 47.01-47.896s47.005 21.484 47.005 47.896-21.1 47.894-47.005 47.894-47.01-21.484-47.01-47.894z"/></svg>